<?xml version="1.0" encoding="utf-8"?>
<!-- Generator: Adobe Illustrator 17.0.1, SVG Export Plug-In . SVG Version: 6.00 Build 0)  -->
<!DOCTYPE svg PUBLIC "-//W3C//DTD SVG 1.1//EN" "http://www.w3.org/Graphics/SVG/1.1/DTD/svg11.dtd">
<svg version="1.1" id="Calque_1" xmlns="http://www.w3.org/2000/svg" xmlns:xlink="http://www.w3.org/1999/xlink" x="0px" y="0px"
	 width="300px" height="164px" viewBox="0 0 300 164" enable-background="new 0 0 300 164" xml:space="preserve">
<g>
	<g>
		<g>
			<g>
				<g>
					<g>
						<path fill="#566981" d="M113.732,57.448"/>
						<g>
							<path fill="#566981" d="M171.866,32.155c-4.046-1.639-34.869-23.724-34.869-23.724l-0.578-5.356l-1.349,5.268L90.954,33.295
								l-4.238,0.129C86.716,33.424,175.912,33.794,171.866,32.155z M136.034,32.614l-10.21,0.017l-0.578-10.848l-1.156-0.053
								l6.165-4.24l6.55,4.338l0.193,8.246L136.034,32.614z"/>
						</g>
						<polyline fill="#566981" points="97.934,29.267 96.971,16.302 97.549,15.198 99.476,15.286 102.943,17.706 102.943,26.589 
													"/>
						<polygon fill="#566981" points="160.353,23.404 178.076,23.247 178.847,19.245 179.039,23.291 196.956,34.287 176.535,34.321 
							175.379,32.491 173.26,32.394 						"/>
						<path fill="#566981" d="M179.81,35.763l17.338-0.175c0,0,1.734,8.478,2.697,9.33c0.963,0.852,1.926,0.734,1.926,0.734
							l-16.953,0.193l-5.779-7.694L179.81,35.763z"/>
						<polyline fill="#566981" points="169.6,23.343 169.214,11.535 171.333,10.825 173.645,14.484 173.453,23.681 						"/>
						<polygon fill="#566981" points="86.953,34.417 89.073,36.291 175.186,35.067 176.15,33.496 						"/>
						<polygon fill="#566981" points="174.994,36.512 182.507,47.677 202.35,47.617 203.698,46.709 183.47,46.429 176.535,34.321 
													"/>
						<polygon fill="#566981" points="130.522,27.573 128.602,27.485 128.602,25.845 130.522,25.933 						"/>
						<polygon fill="#566981" points="130.522,29.523 128.639,29.437 128.639,27.796 130.522,27.882 						"/>
						<polygon fill="#566981" points="130.67,31.51 128.676,31.419 128.676,29.686 130.67,29.777 						"/>
						<polygon fill="#566981" points="133.217,31.503 131.593,31.429 131.593,29.85 133.217,29.925 						"/>
						<polygon fill="#566981" points="133.18,29.583 131.482,29.505 131.482,27.834 133.18,27.911 						"/>
						<polygon fill="#566981" points="133.217,27.635 131.445,27.553 131.445,25.913 133.217,25.994 						"/>
						<polygon fill="#566981" points="125.649,21.005 130.153,18.209 134.361,20.847 132.589,20.766 129.931,18.756 126.018,20.991 
													"/>
						<polygon fill="#566981" points="125.022,21.286 135.949,21.353 137.019,22.238 136.502,22.338 135.801,21.718 125.612,21.623 
													"/>
						<polygon fill="#566981" points="127.643,24.718 133.254,24.851 133.254,31.876 133.032,25.986 128.344,25.864 						"/>
						<path fill="#566981" d="M126.129,31.767c0-0.093-0.185-8.953-0.185-8.953l2.289,0.043l-2.03,0.278L126.129,31.767z"/>
						<polygon fill="#566981" points="126.646,23.805 134.177,23.903 134.103,24.085 126.72,23.933 						"/>
						<polygon fill="#566981" points="134.103,24.085 134.251,31.891 134.177,23.903 						"/>
						<polygon fill="#566981" points="125.908,21.853 135.579,21.924 136.281,22.513 135.949,22.529 135.469,22.105 126.092,21.954 
													"/>
						<polygon fill="#566981" points="130.079,17.494 135.616,20.781 135.358,20.893 130.042,17.74 						"/>
						<g>
							<g>
								<polygon fill="#566981" points="104.933,56.399 100.246,56.346 100.246,43.586 104.933,43.639 								"/>
								<polygon fill="#566981" points="116.924,56.439 112.237,56.386 112.237,43.626 116.924,43.679 								"/>
								<polygon fill="#566981" points="105.096,43.843 106.126,44.533 112.465,44.624 112.491,43.673 104.99,43.573 								"/>
								<polyline fill="#566981" points="106.126,44.621 106.126,47.987 108.714,48.106 108.608,44.624 106.258,44.65 								"/>
								<polyline fill="#566981" points="106.126,48.297 106.126,51.663 108.714,51.781 108.608,48.3 106.258,48.325 								"/>
								<polyline fill="#566981" points="106.126,52.128 106.126,55.494 108.714,55.612 108.608,52.131 106.258,52.156 								"/>
								<polyline fill="#566981" points="109.722,44.786 109.722,48.152 112.31,48.27 112.205,44.789 109.854,44.814 								"/>
								<polyline fill="#566981" points="109.722,48.462 109.722,51.828 112.31,51.946 112.205,48.465 109.854,48.49 								"/>
								<polyline fill="#566981" points="109.722,52.293 109.722,55.658 112.31,55.777 112.205,52.296 109.854,52.321 								"/>
							</g>
							<polygon fill="#566981" points="105.223,56.385 112.062,56.537 112.062,55.999 109.782,55.867 110.168,56.423 							"/>
						</g>
						<g>
							<g>
								<polygon fill="#566981" points="126.831,56.487 122.144,56.434 122.144,43.674 126.831,43.727 								"/>
								<polygon fill="#566981" points="138.822,56.527 134.135,56.473 134.135,43.714 138.822,43.767 								"/>
								<polygon fill="#566981" points="126.993,43.931 128.023,44.62 134.362,44.712 134.389,43.761 126.888,43.661 								"/>
								<polyline fill="#566981" points="128.023,44.709 128.023,48.075 130.612,48.193 130.506,44.712 128.155,44.737 								"/>
								<polyline fill="#566981" points="128.023,48.385 128.023,51.751 130.612,51.869 130.506,48.388 128.155,48.413 								"/>
								<polyline fill="#566981" points="128.023,52.216 128.023,55.581 130.612,55.7 130.506,52.219 128.155,52.244 								"/>
								<polyline fill="#566981" points="131.62,44.874 131.62,48.24 134.208,48.358 134.102,44.877 131.752,44.902 								"/>
								<polyline fill="#566981" points="131.62,48.55 131.62,51.915 134.208,52.034 134.102,48.553 131.752,48.578 								"/>
								<polyline fill="#566981" points="131.62,52.38 131.62,55.746 134.208,55.865 134.102,52.383 131.752,52.409 								"/>
							</g>
							<polygon fill="#566981" points="127.121,56.473 133.96,56.625 133.96,56.086 131.68,55.955 132.065,56.511 							"/>
						</g>
						<g>
							<g>
								<polygon fill="#566981" points="150.944,56.703 146.257,56.65 146.257,43.89 150.944,43.943 								"/>
								<polygon fill="#566981" points="162.935,56.743 158.248,56.69 158.248,43.93 162.935,43.983 								"/>
								<polygon fill="#566981" points="151.107,44.147 152.137,44.837 158.475,44.928 158.502,43.977 151.001,43.877 								"/>
								<polyline fill="#566981" points="152.137,44.925 152.137,48.291 154.725,48.409 154.619,44.928 152.269,44.953 								"/>
								<polyline fill="#566981" points="152.137,48.601 152.137,51.967 154.725,52.085 154.619,48.604 152.269,48.629 								"/>
								<polyline fill="#566981" points="152.137,52.432 152.137,55.797 154.725,55.916 154.619,52.435 152.269,52.46 								"/>
								<polyline fill="#566981" points="155.733,45.09 155.733,48.456 158.321,48.574 158.215,45.093 155.865,45.118 								"/>
								<polyline fill="#566981" points="155.733,48.766 155.733,52.131 158.321,52.25 158.215,48.769 155.865,48.794 								"/>
								<polyline fill="#566981" points="155.733,52.596 155.733,55.962 158.321,56.081 158.215,52.599 155.865,52.625 								"/>
							</g>
							<polygon fill="#566981" points="151.234,56.689 158.073,56.841 158.073,56.302 155.793,56.171 156.178,56.727 							"/>
						</g>
						<g>
							<g>
								<polygon fill="#566981" points="150.944,78.507 146.257,78.454 146.257,65.694 150.944,65.748 								"/>
								<polygon fill="#566981" points="162.935,78.547 158.248,78.494 158.248,65.734 162.935,65.787 								"/>
								<polygon fill="#566981" points="151.107,65.951 152.137,66.641 158.475,66.732 158.502,65.781 151.001,65.681 								"/>
								<polyline fill="#566981" points="152.137,66.729 152.137,70.095 154.725,70.214 154.619,66.732 152.269,66.758 								"/>
								<polyline fill="#566981" points="152.137,70.405 152.137,73.771 154.725,73.89 154.619,70.408 152.269,70.433 								"/>
								<polyline fill="#566981" points="152.137,74.236 152.137,77.602 154.725,77.72 154.619,74.239 152.269,74.264 								"/>
								<polyline fill="#566981" points="155.733,66.894 155.733,70.26 158.321,70.378 158.215,66.897 155.865,66.922 								"/>
								<polyline fill="#566981" points="155.733,70.57 155.733,73.936 158.321,74.054 158.215,70.573 155.865,70.598 								"/>
								<polyline fill="#566981" points="155.733,74.401 155.733,77.766 158.321,77.885 158.215,74.404 155.865,74.429 								"/>
							</g>
							<polygon fill="#566981" points="151.234,78.493 158.073,78.645 158.073,78.107 155.793,77.975 156.178,78.531 							"/>
						</g>
						<polygon fill="#566981" points="89.747,37.775 168.925,37.283 169.503,36.099 168.925,35.507 169.407,35.206 169.985,35.798 
							169.889,38.377 169.503,37.794 						"/>
						<polygon fill="#566981" points="89.265,57.296 169.985,58.248 170.467,58.593 						"/>
						<g>
							<polyline fill="#566981" points="176.342,34.797 174.32,35.915 175.581,71.614 175.379,36.933 							"/>
						</g>
						<g>
							<g>
								<polygon fill="#566981" points="185.269,64.236 182.828,64.248 182.828,54.504 185.269,54.493 								"/>
								<polygon fill="#566981" points="191.512,64.133 189.071,64.145 189.071,54.401 191.512,54.39 								"/>
								<polygon fill="#566981" points="185.353,54.647 185.889,55.162 189.19,55.161 189.203,54.434 185.298,54.441 								"/>
								<polyline fill="#566981" points="185.889,55.229 185.889,57.799 187.237,57.861 187.182,55.204 185.958,55.249 								"/>
								<polyline fill="#566981" points="185.889,58.036 185.889,60.606 187.237,60.668 187.182,58.011 185.958,58.056 								"/>
								<polyline fill="#566981" points="185.889,60.961 185.889,63.531 187.237,63.593 187.182,60.936 185.958,60.981 								"/>
								<polyline fill="#566981" points="187.762,55.315 187.762,57.885 189.109,57.947 189.054,55.29 187.83,55.335 								"/>
								<polyline fill="#566981" points="187.762,58.122 187.762,60.692 189.109,60.754 189.054,58.097 187.83,58.142 								"/>
								<polyline fill="#566981" points="187.762,61.047 187.762,63.617 189.109,63.679 189.054,61.022 187.83,61.067 								"/>
							</g>
							<polygon fill="#566981" points="185.419,64.222 188.98,64.262 188.98,63.851 187.793,63.776 187.994,64.196 							"/>
						</g>
						<path fill="#566981" d="M196.763,29.756l-0.482,0.786l0.385,1.148l0.578,0.673v2.665c0,0,1.734,9.609,3.275,10.325
							s0.578-0.135,0.578-0.135l0.096-4.356l0.482-0.139l-0.096-5.415l-2.119-0.178l-0.096-3.073l0.482-0.139l0.096-1.691
							l-0.674-0.192v-0.323L196.763,29.756z"/>
						<polyline fill="#566981" points="89.073,36.291 89.187,62.968 89.573,62.905 						"/>
						<polyline fill="#566981" points="92.926,36.467 93.04,63.144 93.426,63.081 						"/>
						<polyline fill="#566981" points="169.889,39.992 169.985,78.449 170.37,87.722 						"/>
					</g>
					<g>
						<polyline fill="#566981" points="201.29,45.872 199.267,46.991 200.249,68.608 200.327,48.009 						"/>
					</g>
				</g>
			</g>
		</g>
	</g>
</g>
<g>
	<path fill="#3C526E" d="M85.772,152.438l-1.521,3.266c-0.57,1.226-1.039,2.297-1.404,3.213h-0.205
		c-0.126-0.313-0.489-1.119-1.086-2.416l-1.834-3.917v4.083c0,0.951,0.037,1.49,0.11,1.619c0.074,0.128,0.303,0.192,0.687,0.192
		h0.19v0.333c-0.476-0.025-0.862-0.037-1.159-0.037c-0.216,0-0.645,0.012-1.288,0.037v-0.333h0.333c0.225,0,0.375-0.033,0.451-0.1
		c0.075-0.067,0.121-0.188,0.138-0.364c0.044-0.493,0.066-1.024,0.066-1.595v-2.989c0-0.722-0.015-1.199-0.046-1.431
		c-0.014-0.12-0.064-0.211-0.151-0.275c-0.087-0.063-0.26-0.095-0.52-0.095h-0.271v-0.333c0.594,0.025,0.968,0.037,1.121,0.037
		c0.195,0,0.471-0.012,0.83-0.037c0.413,0.948,0.89,1.992,1.43,3.133l1.348,2.858l1.245-2.647c0.437-0.926,0.936-2.042,1.496-3.345
		c0.426,0.025,0.727,0.037,0.901,0.037c0.201,0,0.564-0.012,1.09-0.037v0.333h-0.334c-0.302,0-0.486,0.054-0.553,0.161
		c-0.067,0.107-0.101,0.494-0.101,1.159v3.86c0,0.859,0.035,1.352,0.105,1.479s0.267,0.19,0.589,0.19h0.293v0.333
		c-0.475-0.025-0.928-0.037-1.362-0.037c-0.478,0-0.978,0.012-1.5,0.037v-0.333h0.338c0.27,0,0.433-0.061,0.489-0.182
		c0.057-0.121,0.084-0.643,0.084-1.566V152.438z"/>
	<path fill="#3C526E" d="M93.309,156.277h-2.961L90,157.127c-0.229,0.563-0.343,0.908-0.343,1.035c0,0.081,0.021,0.139,0.064,0.174
		c0.042,0.036,0.151,0.063,0.325,0.084l0.492,0.058v0.333c-0.328-0.025-0.696-0.037-1.106-0.037c-0.491,0-0.923,0.012-1.295,0.037
		v-0.333l0.153-0.005c0.239-0.007,0.394-0.033,0.463-0.077s0.144-0.152,0.223-0.325c0.242-0.507,0.49-1.055,0.742-1.643l1.408-3.29
		c0.375-0.873,0.631-1.507,0.768-1.901h0.348l2.59,6.215c0.174,0.422,0.29,0.677,0.348,0.763c0.058,0.086,0.125,0.148,0.199,0.185
		c0.075,0.037,0.244,0.063,0.507,0.076v0.333c-0.443-0.025-0.867-0.037-1.27-0.037c-0.375,0-0.875,0.012-1.5,0.037v-0.333
		l0.506-0.032c0.181-0.014,0.289-0.033,0.323-0.058c0.051-0.039,0.077-0.088,0.077-0.148c0-0.063-0.051-0.229-0.153-0.497
		L93.309,156.277z M90.538,155.844h2.579l-1.289-3.172L90.538,155.844z"/>
	<path fill="#3C526E" d="M96.405,158.479h0.322c0.317,0,0.508-0.079,0.571-0.237c0.063-0.159,0.095-0.917,0.095-2.276v-1.791
		c0-1.408-0.027-2.184-0.082-2.329s-0.218-0.216-0.491-0.216h-0.415v-0.333c0.567,0.025,1.128,0.037,1.682,0.037
		c0.461,0,0.88-0.012,1.256-0.037v0.333h-0.396c-0.244,0-0.396,0.03-0.458,0.089c-0.062,0.06-0.098,0.211-0.108,0.454
		c-0.018,0.377-0.026,1.048-0.026,2.012v1.822c0,1.37,0.029,2.124,0.087,2.263c0.058,0.139,0.245,0.208,0.561,0.208h0.339v0.333
		c-0.42-0.025-0.878-0.037-1.374-0.037c-0.578,0-1.099,0.012-1.564,0.037V158.479z"/>
	<path fill="#3C526E" d="M104.539,151.651c-0.095,0.366-0.146,0.852-0.153,1.458h-0.353v-0.423c0-0.274-0.036-0.461-0.108-0.56
		c-0.071-0.099-0.258-0.203-0.561-0.314c-0.302-0.111-0.62-0.167-0.955-0.167c-0.546,0-0.975,0.143-1.287,0.427
		c-0.313,0.285-0.469,0.65-0.469,1.097c0,0.281,0.064,0.522,0.192,0.725s0.3,0.348,0.517,0.438c0.217,0.089,0.677,0.168,1.38,0.237
		c0.703,0.07,1.178,0.164,1.425,0.28c0.248,0.116,0.445,0.303,0.594,0.56c0.149,0.257,0.223,0.562,0.223,0.914
		c0,0.708-0.287,1.317-0.86,1.828s-1.338,0.766-2.293,0.766c-0.328,0-0.658-0.034-0.991-0.103c-0.333-0.068-0.668-0.17-1.006-0.304
		c0.062-0.422,0.09-0.964,0.087-1.626h0.348v0.264c0,0.341,0.017,0.553,0.051,0.634s0.114,0.167,0.241,0.259
		c0.188,0.137,0.411,0.242,0.67,0.314c0.259,0.072,0.539,0.108,0.839,0.108c0.645,0,1.144-0.157,1.495-0.47
		c0.351-0.313,0.527-0.711,0.527-1.193c0-0.281-0.06-0.52-0.179-0.715c-0.119-0.195-0.287-0.341-0.501-0.436
		c-0.215-0.095-0.613-0.167-1.193-0.217c-0.771-0.063-1.295-0.158-1.571-0.285c-0.276-0.126-0.493-0.326-0.65-0.599
		c-0.157-0.273-0.235-0.612-0.235-1.017c0-0.687,0.241-1.248,0.722-1.685c0.481-0.437,1.147-0.655,1.997-0.655
		c0.341,0,0.684,0.038,1.026,0.113C103.85,151.381,104.194,151.496,104.539,151.651z"/>
	<path fill="#3C526E" d="M105.363,155.052c0-1.158,0.362-2.091,1.086-2.799c0.724-0.708,1.689-1.062,2.895-1.062
		c1.181,0,2.107,0.328,2.779,0.985c0.671,0.657,1.006,1.529,1.006,2.617c0,1.172-0.389,2.153-1.168,2.941
		c-0.778,0.789-1.76,1.183-2.945,1.183c-0.741,0-1.379-0.155-1.916-0.465c-0.536-0.31-0.96-0.762-1.271-1.357
		C105.518,156.5,105.363,155.819,105.363,155.052z M106.402,154.619c0,0.795,0.132,1.488,0.397,2.078
		c0.265,0.59,0.619,1.032,1.063,1.326c0.444,0.294,0.951,0.441,1.522,0.441c0.529,0,0.992-0.125,1.388-0.375
		c0.396-0.25,0.708-0.623,0.935-1.12c0.227-0.496,0.341-1.1,0.341-1.811c0-0.747-0.125-1.384-0.376-1.915
		c-0.251-0.53-0.595-0.928-1.033-1.196c-0.437-0.268-0.955-0.401-1.552-0.401c-0.546,0-1.018,0.118-1.414,0.354
		c-0.396,0.236-0.707,0.582-0.933,1.038C106.515,153.493,106.402,154.02,106.402,154.619z"/>
	<path fill="#3C526E" d="M115.059,152.488v3.65c0,0.831,0.015,1.41,0.046,1.738c0.024,0.25,0.064,0.402,0.121,0.457
		s0.22,0.094,0.492,0.119l0.329,0.026v0.333c-0.373-0.025-0.709-0.037-1.011-0.037c-0.208,0-0.687,0.012-1.436,0.037v-0.333h0.369
		c0.222,0,0.367-0.032,0.435-0.095c0.068-0.063,0.111-0.188,0.128-0.375c0.038-0.387,0.056-0.914,0.056-1.579v-2.625
		c0-0.493-0.005-0.98-0.015-1.462c-0.007-0.205-0.033-0.344-0.08-0.42c-0.046-0.076-0.113-0.144-0.202-0.204
		c-0.089-0.06-0.213-0.089-0.374-0.089H113.6v-0.333c0.433,0.025,0.764,0.037,0.993,0.037c0.246,0,0.515-0.012,0.809-0.037
		c0.338,0.426,0.656,0.841,0.955,1.244c0.299,0.403,0.608,0.809,0.929,1.217l1.751,2.218c0.631,0.796,1.087,1.349,1.367,1.658v-3.39
		c0-1.419-0.025-2.194-0.074-2.326c-0.05-0.132-0.247-0.216-0.591-0.251l-0.384-0.037v-0.333c0.549,0.025,0.976,0.037,1.279,0.037
		c0.317,0,0.727-0.012,1.229-0.037v0.333h-0.395c-0.317,0-0.5,0.109-0.547,0.327c-0.031,0.145-0.046,0.916-0.046,2.313v2.381
		c0,0.641,0.027,1.407,0.082,2.297c-0.464-0.074-0.734-0.128-0.809-0.161c-0.075-0.033-0.147-0.089-0.215-0.167
		c-0.379-0.433-0.776-0.914-1.193-1.442L115.059,152.488z"/>
	<path fill="#3C526E" d="M125.839,158.283c0.055-0.545,0.082-1.5,0.082-2.862v-1.532c0-0.626-0.021-1.167-0.062-1.621
		c-0.024-0.264-0.055-0.417-0.095-0.459c-0.039-0.042-0.18-0.081-0.422-0.116l-0.409-0.063v-0.333
		c0.563,0.018,0.942,0.026,1.136,0.026l1.377-0.01l1.121-0.021c0.451-0.007,0.913,0.039,1.387,0.138
		c0.475,0.099,0.904,0.296,1.29,0.594c0.386,0.298,0.679,0.671,0.88,1.12c0.202,0.449,0.302,0.967,0.302,1.555
		c0,1.19-0.388,2.174-1.165,2.952c-0.776,0.778-1.791,1.167-3.043,1.167l-0.629-0.016c-0.618-0.024-1.008-0.037-1.172-0.037
		c-0.276,0-0.628,0.021-1.055,0.063v-0.253L125.839,158.283z M126.945,158.257c0.46,0.07,0.867,0.105,1.218,0.105
		c0.956,0,1.698-0.253,2.227-0.76c0.638-0.616,0.958-1.514,0.958-2.693c0-1.028-0.266-1.812-0.796-2.35
		c-0.531-0.539-1.308-0.808-2.332-0.808c-0.358,0-0.783,0.037-1.274,0.111c-0.041,0.338-0.062,0.722-0.062,1.151v3.454
		C126.883,157.104,126.904,157.701,126.945,158.257z"/>
	<path fill="#3C526E" d="M135.14,155.221v1.296l0.005,0.746c0,0.466,0.005,0.806,0.016,1.021c0.499,0.039,1.034,0.058,1.604,0.058
		c0.383,0,0.704-0.018,0.964-0.053c0.167-0.021,0.345-0.067,0.533-0.137c0.085-0.31,0.172-0.697,0.261-1.162h0.338
		c-0.092,0.773-0.138,1.289-0.138,1.546l0.01,0.238c-0.393,0.035-0.778,0.053-1.157,0.053l-0.804-0.016
		c-0.887-0.025-1.539-0.037-1.956-0.037c-0.399,0-0.93,0.012-1.592,0.037v-0.333h0.159c0.297,0,0.483-0.03,0.561-0.089
		c0.077-0.06,0.128-0.201,0.153-0.423c0.026-0.222,0.039-0.711,0.039-1.468v-2.899c0-0.475-0.011-0.864-0.033-1.167
		c-0.022-0.303-0.046-0.483-0.072-0.541c-0.026-0.058-0.063-0.103-0.11-0.135c-0.047-0.032-0.194-0.06-0.44-0.084l-0.394-0.042
		v-0.333h0.553l0.542,0.019c0.304,0.012,0.534,0.019,0.691,0.019l1.966-0.031l0.932-0.006c0.317-0.003,0.638,0.009,0.962,0.037
		c-0.129,0.418-0.201,0.962-0.215,1.632h-0.348c0-0.387-0.019-0.709-0.056-0.966c-0.403-0.155-0.898-0.232-1.485-0.232
		c-0.467,0-0.957,0.021-1.469,0.063c0.003,0.331,0,0.661-0.01,0.991l-0.01,0.812v1.07c0.338,0.024,0.636,0.037,0.896,0.037
		c0.813,0,1.272-0.029,1.38-0.087s0.161-0.238,0.161-0.541v-0.343h0.348c-0.024,0.531-0.036,0.956-0.036,1.272
		c0,0.334,0.012,0.729,0.036,1.183h-0.348v-0.306c0-0.338-0.064-0.544-0.192-0.621c-0.128-0.076-0.58-0.113-1.354-0.113
		C135.744,155.184,135.447,155.196,135.14,155.221z"/>
	<path fill="#3C526E" d="M148.424,153.203l-0.041-0.94c-0.304-0.208-0.622-0.362-0.955-0.464c-0.333-0.102-0.68-0.153-1.042-0.153
		c-0.921,0-1.66,0.289-2.214,0.866c-0.554,0.577-0.832,1.35-0.832,2.318c0,0.68,0.141,1.285,0.422,1.817
		c0.281,0.531,0.682,0.952,1.2,1.262c0.519,0.31,1.066,0.465,1.643,0.465c0.458,0,0.91-0.055,1.357-0.164
		c0.334-0.081,0.67-0.25,1.008-0.507l0.107,0.105c-0.072,0.162-0.138,0.326-0.2,0.491c-0.399,0.204-0.801,0.358-1.206,0.462
		s-0.811,0.156-1.221,0.156c-0.839,0-1.578-0.167-2.214-0.501c-0.637-0.334-1.125-0.797-1.467-1.386
		c-0.341-0.59-0.512-1.256-0.512-1.999c0-0.743,0.172-1.407,0.517-1.993c0.344-0.586,0.832-1.041,1.461-1.363
		c0.629-0.322,1.403-0.483,2.321-0.483c0.481,0,1.044,0.081,1.689,0.243c0.321,0.078,0.582,0.136,0.783,0.174
		c-0.154,0.377-0.243,0.908-0.266,1.595H148.424z"/>
	<path fill="#3C526E" d="M154.646,156.277h-2.961l-0.347,0.85c-0.229,0.563-0.343,0.908-0.343,1.035
		c0,0.081,0.021,0.139,0.064,0.174c0.042,0.036,0.151,0.063,0.325,0.084l0.492,0.058v0.333c-0.328-0.025-0.696-0.037-1.106-0.037
		c-0.491,0-0.923,0.012-1.295,0.037v-0.333l0.153-0.005c0.239-0.007,0.394-0.033,0.463-0.077s0.144-0.152,0.223-0.325
		c0.242-0.507,0.49-1.055,0.742-1.643l1.408-3.29c0.375-0.873,0.631-1.507,0.768-1.901h0.348l2.59,6.215
		c0.174,0.422,0.29,0.677,0.348,0.763c0.058,0.086,0.125,0.148,0.199,0.185c0.075,0.037,0.244,0.063,0.507,0.076v0.333
		c-0.443-0.025-0.867-0.037-1.27-0.037c-0.375,0-0.875,0.012-1.5,0.037v-0.333l0.506-0.032c0.181-0.014,0.289-0.033,0.323-0.058
		c0.051-0.039,0.077-0.088,0.077-0.148c0-0.063-0.051-0.229-0.153-0.497L154.646,156.277z M151.875,155.844h2.579l-1.289-3.172
		L151.875,155.844z"/>
	<path fill="#3C526E" d="M161.467,154.999c0.334,0.497,0.749,1.074,1.244,1.732l0.983,1.315c0.174,0.225,0.29,0.354,0.348,0.385
		s0.118,0.047,0.179,0.047h0.133v0.333c-0.284-0.025-0.531-0.037-0.743-0.037c-0.194,0-0.399,0.012-0.614,0.037l-1.812-2.524
		c-0.338-0.464-0.7-0.919-1.085-1.362l0.051-0.18c0.198,0.018,0.345,0.026,0.44,0.026c0.57,0,1.016-0.151,1.338-0.454
		c0.323-0.303,0.484-0.708,0.484-1.214c0-0.454-0.136-0.809-0.409-1.064c-0.273-0.255-0.667-0.383-1.183-0.383
		c-0.358,0-0.719,0.068-1.08,0.206c-0.041,0.56-0.062,1.159-0.062,1.795v2.551c0,1.243,0.029,1.932,0.087,2.067
		c0.058,0.136,0.246,0.203,0.563,0.203h0.399v0.333c-0.566-0.025-1.036-0.037-1.408-0.037c-0.293,0-0.824,0.012-1.592,0.037v-0.333
		h0.384c0.293,0,0.467-0.066,0.522-0.198c0.055-0.132,0.082-0.827,0.082-2.083v-2.54c0-1.091-0.032-1.702-0.095-1.832
		s-0.269-0.195-0.617-0.195h-0.276v-0.333c0.635,0.025,1.119,0.037,1.454,0.037c0.225,0,0.549-0.009,0.973-0.026
		c0.491-0.018,0.845-0.026,1.06-0.026c0.59,0,1.038,0.064,1.344,0.192c0.305,0.129,0.538,0.314,0.696,0.557
		c0.159,0.243,0.238,0.534,0.238,0.872c0,0.497-0.173,0.935-0.52,1.315C162.628,154.597,162.126,154.858,161.467,154.999z"/>
	<path fill="#3C526E" d="M169.803,156.277h-2.961l-0.347,0.85c-0.229,0.563-0.343,0.908-0.343,1.035
		c0,0.081,0.021,0.139,0.064,0.174c0.042,0.036,0.151,0.063,0.325,0.084l0.492,0.058v0.333c-0.328-0.025-0.696-0.037-1.106-0.037
		c-0.491,0-0.923,0.012-1.295,0.037v-0.333l0.153-0.005c0.239-0.007,0.394-0.033,0.463-0.077s0.144-0.152,0.223-0.325
		c0.242-0.507,0.49-1.055,0.742-1.643l1.408-3.29c0.375-0.873,0.631-1.507,0.768-1.901h0.348l2.59,6.215
		c0.174,0.422,0.29,0.677,0.348,0.763c0.058,0.086,0.125,0.148,0.199,0.185c0.075,0.037,0.244,0.063,0.507,0.076v0.333
		c-0.443-0.025-0.867-0.037-1.27-0.037c-0.375,0-0.875,0.012-1.5,0.037v-0.333l0.506-0.032c0.181-0.014,0.289-0.033,0.323-0.058
		c0.051-0.039,0.077-0.088,0.077-0.148c0-0.063-0.051-0.229-0.153-0.497L169.803,156.277z M167.032,155.844h2.579l-1.289-3.172
		L167.032,155.844z"/>
	<path fill="#3C526E" d="M179.169,153.203l-0.041-0.94c-0.304-0.208-0.622-0.362-0.955-0.464c-0.333-0.102-0.68-0.153-1.042-0.153
		c-0.921,0-1.66,0.289-2.214,0.866c-0.554,0.577-0.832,1.35-0.832,2.318c0,0.68,0.141,1.285,0.422,1.817
		c0.281,0.531,0.682,0.952,1.2,1.262c0.519,0.31,1.066,0.465,1.643,0.465c0.458,0,0.91-0.055,1.357-0.164
		c0.334-0.081,0.67-0.25,1.008-0.507l0.107,0.105c-0.072,0.162-0.138,0.326-0.2,0.491c-0.399,0.204-0.801,0.358-1.206,0.462
		s-0.811,0.156-1.221,0.156c-0.839,0-1.578-0.167-2.214-0.501c-0.637-0.334-1.125-0.797-1.467-1.386
		c-0.341-0.59-0.512-1.256-0.512-1.999c0-0.743,0.172-1.407,0.517-1.993c0.344-0.586,0.832-1.041,1.461-1.363
		c0.629-0.322,1.403-0.483,2.321-0.483c0.481,0,1.044,0.081,1.689,0.243c0.321,0.078,0.582,0.136,0.783,0.174
		c-0.154,0.377-0.243,0.908-0.266,1.595H179.169z"/>
	<path fill="#3C526E" d="M183.771,151.777c-0.038,0.528-0.057,1.084-0.057,1.669v3.01c0,1.12,0.027,1.737,0.082,1.851
		s0.249,0.171,0.583,0.171h0.384v0.333c-0.604-0.025-1.116-0.037-1.536-0.037c-0.423,0-0.932,0.012-1.525,0.037v-0.333h0.43
		c0.225,0,0.372-0.031,0.44-0.092c0.068-0.062,0.111-0.182,0.128-0.362c0.034-0.412,0.051-0.943,0.051-1.595v-3.015
		c0-0.595-0.012-1.141-0.036-1.637h-0.521c-0.841,0-1.304,0.021-1.389,0.061c-0.085,0.041-0.141,0.198-0.168,0.473l-0.071,0.708
		h-0.323l0.01-0.628c0-0.253-0.021-0.618-0.062-1.093c1.843,0.025,2.927,0.037,3.251,0.037l2.831-0.037
		c-0.065,0.595-0.103,1.169-0.112,1.722h-0.323l-0.051-0.692c-0.021-0.239-0.049-0.381-0.087-0.425
		c-0.038-0.044-0.121-0.071-0.251-0.082c-0.375-0.028-0.802-0.042-1.28-0.042H183.771z"/>
	<path fill="#3C526E" d="M188.768,155.221v1.296l0.005,0.746c0,0.466,0.006,0.806,0.016,1.021c0.499,0.039,1.034,0.058,1.604,0.058
		c0.383,0,0.704-0.018,0.964-0.053c0.168-0.021,0.346-0.067,0.533-0.137c0.086-0.31,0.173-0.697,0.262-1.162h0.338
		c-0.092,0.773-0.139,1.289-0.139,1.546l0.011,0.238c-0.393,0.035-0.778,0.053-1.157,0.053l-0.804-0.016
		c-0.887-0.025-1.539-0.037-1.955-0.037c-0.399,0-0.93,0.012-1.592,0.037v-0.333h0.158c0.297,0,0.483-0.03,0.561-0.089
		c0.077-0.06,0.128-0.201,0.153-0.423c0.026-0.222,0.039-0.711,0.039-1.468v-2.899c0-0.475-0.012-0.864-0.033-1.167
		c-0.022-0.303-0.047-0.483-0.072-0.541s-0.063-0.103-0.11-0.135c-0.047-0.032-0.194-0.06-0.439-0.084l-0.395-0.042v-0.333h0.553
		l0.543,0.019c0.304,0.012,0.534,0.019,0.69,0.019l1.966-0.031l0.932-0.006c0.317-0.003,0.639,0.009,0.963,0.037
		c-0.13,0.418-0.201,0.962-0.215,1.632h-0.349c0-0.387-0.019-0.709-0.056-0.966c-0.403-0.155-0.898-0.232-1.485-0.232
		c-0.467,0-0.957,0.021-1.469,0.063c0.003,0.331,0,0.661-0.01,0.991l-0.011,0.812v1.07c0.338,0.024,0.637,0.037,0.896,0.037
		c0.813,0,1.272-0.029,1.38-0.087s0.161-0.238,0.161-0.541v-0.343h0.349c-0.024,0.531-0.036,0.956-0.036,1.272
		c0,0.334,0.012,0.729,0.036,1.183h-0.349v-0.306c0-0.338-0.063-0.544-0.191-0.621c-0.128-0.076-0.58-0.113-1.354-0.113
		C189.372,155.184,189.075,155.196,188.768,155.221z M190.304,150.764l-1.373-0.85c-0.26-0.159-0.426-0.284-0.501-0.375
		c-0.055-0.067-0.082-0.143-0.082-0.227c0-0.092,0.031-0.168,0.092-0.23c0.062-0.062,0.146-0.092,0.251-0.092
		c0.064,0,0.124,0.015,0.179,0.045c0.054,0.03,0.145,0.108,0.271,0.235l1.507,1.495H190.304z"/>
	<path fill="#3C526E" d="M196.887,154.999c0.334,0.497,0.749,1.074,1.243,1.732l0.983,1.315c0.174,0.225,0.29,0.354,0.348,0.385
		c0.059,0.032,0.118,0.047,0.18,0.047h0.133v0.333c-0.283-0.025-0.53-0.037-0.742-0.037c-0.194,0-0.399,0.012-0.614,0.037
		l-1.813-2.524c-0.338-0.464-0.699-0.919-1.085-1.362l0.051-0.18c0.198,0.018,0.345,0.026,0.44,0.026
		c0.57,0,1.017-0.151,1.339-0.454s0.483-0.708,0.483-1.214c0-0.454-0.136-0.809-0.409-1.064s-0.667-0.383-1.183-0.383
		c-0.358,0-0.719,0.068-1.08,0.206c-0.041,0.56-0.062,1.159-0.062,1.795v2.551c0,1.243,0.029,1.932,0.087,2.067
		c0.059,0.136,0.246,0.203,0.563,0.203h0.399v0.333c-0.566-0.025-1.036-0.037-1.408-0.037c-0.293,0-0.824,0.012-1.592,0.037v-0.333
		h0.384c0.294,0,0.468-0.066,0.522-0.198c0.055-0.132,0.082-0.827,0.082-2.083v-2.54c0-1.091-0.032-1.702-0.095-1.832
		c-0.063-0.13-0.269-0.195-0.617-0.195h-0.276v-0.333c0.635,0.025,1.119,0.037,1.454,0.037c0.225,0,0.549-0.009,0.973-0.026
		c0.491-0.018,0.845-0.026,1.06-0.026c0.59,0,1.038,0.064,1.344,0.192c0.305,0.129,0.537,0.314,0.696,0.557
		c0.158,0.243,0.237,0.534,0.237,0.872c0,0.497-0.173,0.935-0.52,1.315C198.048,154.597,197.545,154.858,196.887,154.999z"/>
	<path fill="#3C526E" d="M202.175,155.221v1.296l0.005,0.746c0,0.466,0.005,0.806,0.016,1.021c0.499,0.039,1.033,0.058,1.604,0.058
		c0.383,0,0.704-0.018,0.964-0.053c0.167-0.021,0.345-0.067,0.533-0.137c0.085-0.31,0.172-0.697,0.261-1.162h0.338
		c-0.092,0.773-0.138,1.289-0.138,1.546l0.01,0.238c-0.393,0.035-0.777,0.053-1.156,0.053l-0.804-0.016
		c-0.888-0.025-1.539-0.037-1.956-0.037c-0.399,0-0.93,0.012-1.592,0.037v-0.333h0.159c0.297,0,0.483-0.03,0.561-0.089
		c0.076-0.06,0.128-0.201,0.153-0.423c0.025-0.222,0.038-0.711,0.038-1.468v-2.899c0-0.475-0.011-0.864-0.033-1.167
		c-0.022-0.303-0.046-0.483-0.071-0.541c-0.026-0.058-0.063-0.103-0.11-0.135s-0.194-0.06-0.44-0.084l-0.394-0.042v-0.333h0.553
		l0.542,0.019c0.304,0.012,0.534,0.019,0.691,0.019l1.966-0.031l0.932-0.006c0.317-0.003,0.638,0.009,0.962,0.037
		c-0.129,0.418-0.201,0.962-0.215,1.632h-0.348c0-0.387-0.019-0.709-0.057-0.966c-0.402-0.155-0.897-0.232-1.484-0.232
		c-0.468,0-0.957,0.021-1.469,0.063c0.003,0.331,0,0.661-0.011,0.991l-0.01,0.812v1.07c0.338,0.024,0.636,0.037,0.896,0.037
		c0.813,0,1.272-0.029,1.38-0.087s0.161-0.238,0.161-0.541v-0.343h0.348c-0.023,0.531-0.036,0.956-0.036,1.272
		c0,0.334,0.013,0.729,0.036,1.183h-0.348v-0.306c0-0.338-0.064-0.544-0.192-0.621c-0.128-0.076-0.579-0.113-1.354-0.113
		C202.778,155.184,202.481,155.196,202.175,155.221z"/>
</g>
<g>
	<path fill="#37515D" d="M55.053,137.869h-5.556l-0.651,1.784c-0.429,1.182-0.644,1.906-0.644,2.172c0,0.17,0.04,0.292,0.12,0.366
		c0.08,0.074,0.283,0.133,0.61,0.177l0.922,0.122v0.698c-0.615-0.052-1.307-0.078-2.075-0.078c-0.922,0-1.732,0.026-2.43,0.078
		v-0.698l0.288-0.011c0.448-0.015,0.738-0.068,0.869-0.161c0.131-0.092,0.271-0.319,0.418-0.681
		c0.455-1.064,0.919-2.212,1.393-3.446l2.642-6.903c0.704-1.832,1.185-3.162,1.44-3.989h0.653l4.86,13.042
		c0.327,0.886,0.544,1.42,0.653,1.601c0.108,0.181,0.233,0.31,0.375,0.388c0.141,0.078,0.458,0.131,0.951,0.161v0.698
		c-0.833-0.052-1.626-0.078-2.382-0.078c-0.705,0-1.643,0.026-2.814,0.078v-0.698l0.951-0.066c0.339-0.029,0.541-0.07,0.605-0.122
		c0.096-0.081,0.144-0.185,0.144-0.31c0-0.133-0.096-0.48-0.288-1.042L55.053,137.869z M49.855,136.96h4.838l-2.417-6.657
		L49.855,136.96z"/>
	<path fill="#37515D" d="M68.343,143.187l0.106-1.995l-0.566,0.709c-0.441,0.554-0.89,0.943-1.348,1.169
		c-0.457,0.225-1.021,0.338-1.692,0.338c-0.576,0-1.071-0.141-1.486-0.421c-0.416-0.28-0.718-0.644-0.907-1.091
		c-0.188-0.447-0.283-1.154-0.283-2.122c0-0.502,0.01-1.086,0.029-1.751l0.029-1.784c0-1.249-0.03-1.943-0.091-2.083
		c-0.061-0.141-0.264-0.211-0.61-0.211h-0.855v-0.609c0.874-0.088,1.679-0.273,2.418-0.554l0.799-0.344
		c0.109,0,0.164,0.093,0.164,0.277l-0.067,1.13c-0.09,1.566-0.135,3.021-0.135,4.366c0,1.345,0.048,2.203,0.144,2.576
		c0.096,0.373,0.297,0.683,0.604,0.931c0.307,0.248,0.681,0.371,1.122,0.371c0.594,0,1.139-0.222,1.634-0.665
		c0.495-0.443,0.819-0.89,0.973-1.341c0.083-0.258,0.125-1.038,0.125-2.338c0-2.187-0.036-3.375-0.106-3.568
		c-0.064-0.155-0.352-0.233-0.864-0.233H66.72v-0.609c0.659-0.088,1.22-0.192,1.681-0.31s0.948-0.295,1.46-0.532
		c0.064-0.037,0.122-0.056,0.173-0.056c0.109,0,0.164,0.07,0.164,0.21l-0.039,1.031c-0.096,2.526-0.144,4.75-0.144,6.67
		c0,1.079,0.048,1.695,0.144,1.85c0.141,0.229,0.445,0.344,0.913,0.344h0.557v0.643c-0.8-0.052-1.479-0.078-2.036-0.078
		C69.176,143.109,68.759,143.135,68.343,143.187z"/>
	<path fill="#37515D" d="M72.281,128.051v-0.621c0.557-0.066,1.133-0.173,1.729-0.321c0.41-0.096,0.845-0.247,1.306-0.454
		c0.07-0.037,0.131-0.056,0.183-0.056c0.134,0,0.202,0.141,0.202,0.422l-0.048,0.555c-0.045,0.422-0.07,0.736-0.077,0.943
		c-0.019,0.955-0.029,2.256-0.029,3.906v2.352l1.17-1.363c0.25-0.281,0.577-0.508,0.983-0.681c0.406-0.174,0.839-0.261,1.3-0.261
		c1.029,0,1.876,0.41,2.542,1.23s0.998,1.91,0.998,3.269c0,0.747-0.117,1.472-0.351,2.177c-0.234,0.706-0.517,1.276-0.85,1.712
		c-0.153,0.207-0.581,0.604-1.282,1.191s-1.154,0.936-1.359,1.047c-0.384,0.207-0.842,0.311-1.374,0.311
		c-0.48,0-0.911-0.074-1.292-0.222c-0.381-0.148-0.779-0.403-1.196-0.765l-0.768,0.831l-0.327-0.144
		c0.122-1.139,0.183-2.338,0.183-3.595v-7.046c0-1.087-0.029-2.201-0.086-3.34c-0.026-0.525-0.08-0.835-0.163-0.932
		c-0.083-0.096-0.271-0.144-0.563-0.144H72.281z M75.547,139.575c0,0.798,0.025,1.256,0.077,1.374
		c0.102,0.244,0.378,0.524,0.829,0.842c0.451,0.317,0.944,0.476,1.481,0.476c0.933,0,1.655-0.432,2.167-1.296
		c0.511-0.864,0.767-1.913,0.767-3.146c0-1.286-0.248-2.266-0.743-2.942c-0.496-0.676-1.162-1.014-1.999-1.014
		c-0.556,0-1.066,0.185-1.529,0.554c-0.463,0.37-0.781,0.802-0.954,1.296c-0.064,0.192-0.096,0.635-0.096,1.33V139.575z"/>
	<path fill="#37515D" d="M85.401,137.824c0.032,1.455,0.355,2.56,0.969,3.313s1.419,1.13,2.417,1.13
		c0.448,0,0.892-0.084,1.333-0.255c0.441-0.169,0.879-0.424,1.314-0.764l0.163,0.166l-0.308,0.931
		c-0.531,0.354-1.079,0.621-1.642,0.798c-0.564,0.177-1.143,0.266-1.739,0.266c-1.3,0-2.348-0.475-3.146-1.424
		c-0.797-0.949-1.196-2.236-1.196-3.862c0-1.241,0.224-2.315,0.672-3.224c0.294-0.598,0.839-1.152,1.633-1.662
		s1.565-0.765,2.315-0.765c1.133,0,2.031,0.384,2.694,1.152c0.663,0.769,0.994,1.843,0.994,3.225l-0.019,0.654
		c-0.422,0.118-0.825,0.196-1.208,0.232c-0.684,0.059-1.634,0.089-2.849,0.089H85.401z M85.42,136.993
		c0.992,0.052,2.087,0.078,3.285,0.078c0.48,0,0.944-0.026,1.393-0.078v-0.621c0-0.65-0.112-1.267-0.336-1.851
		c-0.141-0.362-0.388-0.663-0.74-0.903c-0.352-0.24-0.759-0.36-1.22-0.36c-0.717,0-1.291,0.303-1.719,0.909
		C85.654,134.773,85.433,135.715,85.42,136.993z"/>
	<path fill="#37515D" d="M96.014,134.478v4.35c0,1.132,0.032,1.857,0.096,2.175c0.064,0.318,0.194,0.566,0.389,0.744
		s0.443,0.266,0.744,0.266c0.186,0,0.367-0.042,0.543-0.127c0.176-0.084,0.351-0.212,0.523-0.382l0.278,0.385l-0.936,1.266
		c-0.206,0.081-0.405,0.144-0.598,0.188c-0.193,0.044-0.379,0.066-0.56,0.066c-0.476,0-0.878-0.098-1.206-0.294
		c-0.328-0.195-0.566-0.45-0.714-0.764s-0.222-0.789-0.222-1.424l0.039-2.139v-4.21c-0.493,0-1.002,0.026-1.527,0.078v-0.477
		c0.551-0.244,1.06-0.499,1.527-0.765c-0.006-1.056-0.032-2.201-0.077-3.435c0.746-0.362,1.284-0.654,1.612-0.875l0.251,0.222
		c-0.051,0.576-0.106,1.939-0.164,4.088c0.781,0,1.418-0.011,1.912-0.033l0.768-0.044l-0.105,1.142l-0.394-0.011l-1.844,0.011
		H96.014z"/>
	<path fill="#37515D" d="M101.239,137.824c0.032,1.455,0.355,2.56,0.969,3.313s1.419,1.13,2.417,1.13
		c0.448,0,0.892-0.084,1.333-0.255c0.441-0.169,0.879-0.424,1.314-0.764l0.163,0.166l-0.308,0.931
		c-0.531,0.354-1.079,0.621-1.642,0.798c-0.564,0.177-1.143,0.266-1.739,0.266c-1.3,0-2.348-0.475-3.146-1.424
		c-0.797-0.949-1.196-2.236-1.196-3.862c0-1.241,0.224-2.315,0.672-3.224c0.294-0.598,0.839-1.152,1.633-1.662
		s1.565-0.765,2.315-0.765c1.133,0,2.031,0.384,2.694,1.152c0.663,0.769,0.994,1.843,0.994,3.225l-0.019,0.654
		c-0.422,0.118-0.825,0.196-1.208,0.232c-0.684,0.059-1.634,0.089-2.849,0.089H101.239z M101.259,136.993
		c0.992,0.052,2.087,0.078,3.285,0.078c0.48,0,0.944-0.026,1.393-0.078v-0.621c0-0.65-0.112-1.267-0.336-1.851
		c-0.141-0.362-0.388-0.663-0.74-0.903c-0.352-0.24-0.759-0.36-1.22-0.36c-0.717,0-1.291,0.303-1.719,0.909
		C101.492,134.773,101.271,135.715,101.259,136.993z"/>
	<path fill="#37515D" d="M111.92,134.987c0.257-0.28,0.536-0.65,0.838-1.107c0.359-0.54,0.693-0.909,1.001-1.108
		s0.632-0.299,0.973-0.299c0.353,0,0.623,0.048,0.809,0.144c0.09,0.044,0.135,0.115,0.135,0.21l-0.009,0.111
		c-0.102,0.599-0.16,1.437-0.173,2.516h-0.432c-0.146-0.377-0.32-0.643-0.521-0.798c-0.201-0.155-0.442-0.233-0.723-0.233
		c-0.376,0-0.726,0.148-1.048,0.443s-0.538,0.708-0.646,1.239s-0.163,1.575-0.163,3.131c0,1.025,0.035,1.889,0.105,2.589
		c0.025,0.258,0.09,0.42,0.192,0.487c0.243,0.155,0.602,0.232,1.076,0.232h0.576v0.643c-0.98-0.052-1.908-0.078-2.786-0.078
		c-0.852,0-1.693,0.026-2.526,0.078v-0.643l0.922-0.089c0.327-0.029,0.533-0.1,0.62-0.21s0.143-0.469,0.168-1.075
		c0.045-1.064,0.067-2.327,0.067-3.79c0-1.78-0.061-2.825-0.183-3.136c-0.083-0.199-0.346-0.299-0.788-0.299h-0.807v-0.643
		c0.621-0.081,1.175-0.187,1.662-0.315c0.487-0.129,0.919-0.294,1.297-0.493c0.089-0.052,0.163-0.078,0.221-0.078
		c0.07,0,0.119,0.022,0.144,0.067s0.039,0.145,0.039,0.3L111.92,134.987z"/>
	<path fill="#37515D" d="M119.69,134.987c0.257-0.28,0.536-0.65,0.838-1.107c0.359-0.54,0.693-0.909,1.001-1.108
		s0.632-0.299,0.973-0.299c0.353,0,0.623,0.048,0.809,0.144c0.09,0.044,0.135,0.115,0.135,0.21l-0.009,0.111
		c-0.102,0.599-0.16,1.437-0.173,2.516h-0.432c-0.146-0.377-0.32-0.643-0.521-0.798c-0.201-0.155-0.442-0.233-0.723-0.233
		c-0.376,0-0.726,0.148-1.048,0.443s-0.538,0.708-0.646,1.239s-0.163,1.575-0.163,3.131c0,1.025,0.035,1.889,0.105,2.589
		c0.025,0.258,0.09,0.42,0.192,0.487c0.243,0.155,0.602,0.232,1.076,0.232h0.576v0.643c-0.98-0.052-1.908-0.078-2.786-0.078
		c-0.852,0-1.693,0.026-2.526,0.078v-0.643l0.922-0.089c0.327-0.029,0.533-0.1,0.62-0.21s0.143-0.469,0.168-1.075
		c0.045-1.064,0.067-2.327,0.067-3.79c0-1.78-0.061-2.825-0.183-3.136c-0.083-0.199-0.346-0.299-0.788-0.299h-0.807v-0.643
		c0.621-0.081,1.175-0.187,1.662-0.315c0.487-0.129,0.919-0.294,1.297-0.493c0.089-0.052,0.163-0.078,0.221-0.078
		c0.07,0,0.119,0.022,0.144,0.067s0.039,0.145,0.039,0.3L119.69,134.987z"/>
	<path fill="#37515D" d="M125.846,137.824c0.032,1.455,0.355,2.56,0.969,3.313s1.419,1.13,2.417,1.13
		c0.448,0,0.892-0.084,1.333-0.255c0.441-0.169,0.879-0.424,1.314-0.764l0.163,0.166l-0.308,0.931
		c-0.531,0.354-1.079,0.621-1.642,0.798c-0.564,0.177-1.143,0.266-1.739,0.266c-1.3,0-2.348-0.475-3.146-1.424
		c-0.797-0.949-1.196-2.236-1.196-3.862c0-1.241,0.224-2.315,0.672-3.224c0.294-0.598,0.839-1.152,1.633-1.662
		s1.565-0.765,2.315-0.765c1.133,0,2.031,0.384,2.694,1.152c0.663,0.769,0.994,1.843,0.994,3.225l-0.019,0.654
		c-0.422,0.118-0.825,0.196-1.208,0.232c-0.684,0.059-1.634,0.089-2.849,0.089H125.846z M125.866,136.993
		c0.992,0.052,2.087,0.078,3.285,0.078c0.48,0,0.944-0.026,1.393-0.078v-0.621c0-0.65-0.112-1.267-0.336-1.851
		c-0.141-0.362-0.388-0.663-0.74-0.903c-0.352-0.24-0.759-0.36-1.22-0.36c-0.717,0-1.291,0.303-1.719,0.909
		C126.099,134.773,125.878,135.715,125.866,136.993z"/>
	<path fill="#37515D" d="M133.425,138.688l-0.125-0.155c0.192-0.561,0.355-1.097,0.49-1.606c0.935,0.052,1.713,0.078,2.334,0.078
		c0.512,0,1.454-0.026,2.824-0.078l0.077,0.166c-0.211,0.562-0.368,1.093-0.47,1.596c-0.877-0.066-1.685-0.1-2.42-0.1
		C135.307,138.589,134.404,138.622,133.425,138.688z"/>
	<path fill="#37515D" d="M140.897,139.796v0.723c0,0.579,0.044,0.938,0.134,1.079c0.167,0.237,0.492,0.467,0.975,0.689
		c0.483,0.223,0.981,0.334,1.494,0.334c0.659,0,1.197-0.206,1.613-0.616c0.416-0.411,0.625-0.9,0.625-1.47
		c0-0.451-0.122-0.813-0.365-1.087c-0.243-0.273-0.708-0.492-1.393-0.655c-1.274-0.295-2.116-0.554-2.526-0.776
		c-0.41-0.222-0.717-0.518-0.922-0.887c-0.205-0.37-0.307-0.817-0.307-1.342c0-0.983,0.309-1.782,0.928-2.396
		c0.619-0.614,1.496-0.921,2.631-0.921c0.898,0,1.792,0.207,2.684,0.621c-0.055,0.502-0.1,1.345-0.135,2.526h-0.576
		c-0.013-0.65-0.073-1.079-0.182-1.285c-0.147-0.273-0.415-0.521-0.805-0.743s-0.805-0.333-1.246-0.333
		c-0.581,0-1.046,0.172-1.394,0.516s-0.522,0.775-0.522,1.292c0,0.496,0.137,0.869,0.413,1.12c0.275,0.259,1.038,0.533,2.286,0.821
		c0.922,0.214,1.53,0.414,1.825,0.598c0.294,0.185,0.532,0.465,0.711,0.842s0.269,0.808,0.269,1.295c0,0.996-0.37,1.856-1.109,2.58
		c-0.74,0.723-1.728,1.085-2.963,1.085c-0.788,0-1.671-0.142-2.651-0.426c-0.173-0.051-0.259-0.128-0.259-0.232l0.029-0.155
		c0.026-0.111,0.048-0.307,0.067-0.589c0.058-0.718,0.086-1.277,0.086-1.677l-0.01-0.533H140.897z"/>
	<path fill="#37515D" d="M155.842,143.187l0.106-1.995l-0.566,0.709c-0.441,0.554-0.89,0.943-1.348,1.169
		c-0.457,0.225-1.021,0.338-1.692,0.338c-0.576,0-1.071-0.141-1.486-0.421c-0.416-0.28-0.718-0.644-0.907-1.091
		c-0.188-0.447-0.283-1.154-0.283-2.122c0-0.502,0.01-1.086,0.029-1.751l0.029-1.784c0-1.249-0.03-1.943-0.091-2.083
		c-0.061-0.141-0.264-0.211-0.61-0.211h-0.855v-0.609c0.874-0.088,1.679-0.273,2.418-0.554l0.799-0.344
		c0.109,0,0.164,0.093,0.164,0.277l-0.067,1.13c-0.09,1.566-0.135,3.021-0.135,4.366c0,1.345,0.048,2.203,0.144,2.576
		c0.096,0.373,0.297,0.683,0.604,0.931c0.307,0.248,0.681,0.371,1.122,0.371c0.594,0,1.139-0.222,1.634-0.665
		c0.495-0.443,0.819-0.89,0.973-1.341c0.083-0.258,0.125-1.038,0.125-2.338c0-2.187-0.036-3.375-0.106-3.568
		c-0.064-0.155-0.352-0.233-0.864-0.233h-0.759v-0.609c0.659-0.088,1.22-0.192,1.681-0.31s0.948-0.295,1.46-0.532
		c0.064-0.037,0.122-0.056,0.173-0.056c0.109,0,0.164,0.07,0.164,0.21l-0.039,1.031c-0.096,2.526-0.144,4.75-0.144,6.67
		c0,1.079,0.048,1.695,0.144,1.85c0.141,0.229,0.445,0.344,0.913,0.344h0.557v0.643c-0.8-0.052-1.479-0.078-2.036-0.078
		C156.674,143.109,156.258,143.135,155.842,143.187z"/>
	<path fill="#37515D" d="M163.276,134.987c0.257-0.28,0.536-0.65,0.838-1.107c0.359-0.54,0.693-0.909,1.001-1.108
		s0.632-0.299,0.973-0.299c0.353,0,0.623,0.048,0.809,0.144c0.09,0.044,0.135,0.115,0.135,0.21l-0.009,0.111
		c-0.102,0.599-0.16,1.437-0.173,2.516h-0.432c-0.146-0.377-0.32-0.643-0.521-0.798c-0.201-0.155-0.442-0.233-0.723-0.233
		c-0.376,0-0.726,0.148-1.048,0.443s-0.538,0.708-0.646,1.239s-0.163,1.575-0.163,3.131c0,1.025,0.035,1.889,0.105,2.589
		c0.025,0.258,0.09,0.42,0.192,0.487c0.243,0.155,0.602,0.232,1.076,0.232h0.576v0.643c-0.98-0.052-1.908-0.078-2.786-0.078
		c-0.852,0-1.693,0.026-2.526,0.078v-0.643l0.922-0.089c0.327-0.029,0.533-0.1,0.62-0.21s0.143-0.469,0.168-1.075
		c0.045-1.064,0.067-2.327,0.067-3.79c0-1.78-0.061-2.825-0.183-3.136c-0.083-0.199-0.346-0.299-0.788-0.299h-0.807v-0.643
		c0.621-0.081,1.175-0.187,1.662-0.315c0.487-0.129,0.919-0.294,1.297-0.493c0.089-0.052,0.163-0.078,0.221-0.078
		c0.07,0,0.119,0.022,0.144,0.067s0.039,0.145,0.039,0.3L163.276,134.987z"/>
	<path fill="#37515D" d="M167.589,138.688l-0.125-0.155c0.192-0.561,0.355-1.097,0.49-1.606c0.935,0.052,1.713,0.078,2.334,0.078
		c0.512,0,1.454-0.026,2.824-0.078l0.077,0.166c-0.211,0.562-0.368,1.093-0.47,1.596c-0.877-0.066-1.685-0.1-2.42-0.1
		C169.471,138.589,168.568,138.622,167.589,138.688z"/>
	<path fill="#37515D" d="M175.733,142.079c0.102-1.145,0.154-3.147,0.154-6.006v-3.213c0-1.315-0.039-2.449-0.115-3.402
		c-0.045-0.554-0.104-0.875-0.178-0.964c-0.074-0.089-0.338-0.17-0.792-0.244l-0.769-0.133v-0.698
		c1.057,0.037,1.768,0.055,2.132,0.055l2.583-0.022l2.104-0.044c0.845-0.015,1.713,0.082,2.603,0.288
		c0.89,0.207,1.697,0.623,2.42,1.247s1.274,1.407,1.652,2.349c0.378,0.941,0.566,2.029,0.566,3.263c0,2.497-0.729,4.561-2.185,6.194
		c-1.457,1.632-3.36,2.449-5.71,2.449l-1.182-0.034c-1.159-0.052-1.892-0.077-2.199-0.077c-0.519,0-1.178,0.044-1.979,0.133v-0.532
		L175.733,142.079z M177.808,142.023c0.864,0.148,1.626,0.222,2.286,0.222c1.793,0,3.186-0.532,4.178-1.596
		c1.197-1.292,1.796-3.176,1.796-5.651c0-2.157-0.499-3.8-1.494-4.931s-2.454-1.695-4.375-1.695c-0.672,0-1.47,0.078-2.392,0.233
		c-0.077,0.709-0.115,1.514-0.115,2.416v7.246C177.693,139.604,177.731,140.856,177.808,142.023z"/>
	<path fill="#37515D" d="M192.465,134.987c0.257-0.28,0.536-0.65,0.838-1.107c0.359-0.54,0.693-0.909,1.002-1.108
		c0.308-0.199,0.632-0.299,0.973-0.299c0.353,0,0.622,0.048,0.809,0.144c0.09,0.044,0.135,0.115,0.135,0.21l-0.01,0.111
		c-0.102,0.599-0.159,1.437-0.173,2.516h-0.433c-0.146-0.377-0.32-0.643-0.521-0.798c-0.201-0.155-0.442-0.233-0.723-0.233
		c-0.377,0-0.727,0.148-1.049,0.443c-0.322,0.295-0.538,0.708-0.646,1.239s-0.162,1.575-0.162,3.131
		c0,1.025,0.035,1.889,0.105,2.589c0.025,0.258,0.09,0.42,0.192,0.487c0.243,0.155,0.602,0.232,1.075,0.232h0.576v0.643
		c-0.979-0.052-1.908-0.078-2.785-0.078c-0.852,0-1.693,0.026-2.526,0.078v-0.643l0.922-0.089c0.327-0.029,0.533-0.1,0.62-0.21
		c0.086-0.111,0.143-0.469,0.168-1.075c0.045-1.064,0.067-2.327,0.067-3.79c0-1.78-0.062-2.825-0.183-3.136
		c-0.083-0.199-0.346-0.299-0.788-0.299h-0.807v-0.643c0.621-0.081,1.175-0.187,1.662-0.315c0.486-0.129,0.919-0.294,1.297-0.493
		c0.089-0.052,0.163-0.078,0.221-0.078c0.07,0,0.118,0.022,0.144,0.067s0.039,0.145,0.039,0.3L192.465,134.987z"/>
	<path fill="#37515D" d="M196.931,137.869c0-1.02,0.205-1.941,0.615-2.765c0.409-0.824,0.984-1.468,1.724-1.934
		c0.74-0.465,1.58-0.698,2.521-0.698c1.364,0,2.455,0.465,3.275,1.396c0.819,0.931,1.229,2.171,1.229,3.723
		c0,1.832-0.535,3.287-1.604,4.366c-0.954,0.968-2.097,1.452-3.429,1.452c-1.28,0-2.323-0.497-3.126-1.49
		C197.333,140.925,196.931,139.575,196.931,137.869z M198.736,137.086c0,1.523,0.271,2.827,0.812,3.91s1.321,1.625,2.339,1.625
		c0.775,0,1.401-0.34,1.878-1.021c0.478-0.68,0.716-1.712,0.716-3.095c0-1.117-0.141-2.084-0.423-2.901
		c-0.281-0.817-0.653-1.413-1.114-1.786s-0.977-0.561-1.546-0.561c-0.506,0-0.962,0.148-1.369,0.444
		c-0.406,0.296-0.706,0.691-0.897,1.187C198.868,135.563,198.736,136.295,198.736,137.086z"/>
	<path fill="#37515D" d="M210.445,134.589l1.452-1.485c0.173-0.177,0.356-0.307,0.549-0.388c0.423-0.163,0.846-0.244,1.27-0.244
		c0.686,0,1.279,0.161,1.779,0.482c0.5,0.322,0.859,0.739,1.077,1.252c0.218,0.513,0.327,1.317,0.327,2.41l-0.038,3.49
		c0,1.204,0.044,1.899,0.133,2.083c0.121,0.236,0.356,0.354,0.707,0.354h0.687v0.643c-0.683-0.052-1.273-0.078-1.771-0.078
		c-0.485,0-1.006,0.026-1.561,0.078c0.121-1.44,0.183-3.387,0.183-5.839c0-0.99-0.076-1.691-0.227-2.105
		c-0.151-0.414-0.404-0.746-0.761-0.997c-0.355-0.251-0.784-0.376-1.284-0.376c-0.623,0-1.15,0.181-1.583,0.543
		c-0.434,0.362-0.701,0.761-0.804,1.196c-0.064,0.288-0.097,1.042-0.097,2.261c0,1.352,0.01,2.607,0.029,3.767
		c0.006,0.347,0.051,0.565,0.135,0.654c0.161,0.17,0.426,0.255,0.792,0.255h0.687v0.643c-1.084-0.052-1.947-0.078-2.589-0.078
		c-0.68,0-1.453,0.026-2.319,0.078v-0.643h0.691c0.474,0,0.751-0.127,0.831-0.382s0.12-1.787,0.12-4.598
		c0-1.261-0.013-2.25-0.038-2.966c-0.014-0.236-0.064-0.398-0.154-0.487c-0.09-0.088-0.343-0.132-0.759-0.132h-0.691v-0.643
		c0.549-0.074,1.041-0.173,1.475-0.299c0.435-0.125,0.923-0.318,1.466-0.576c0.057-0.03,0.111-0.044,0.162-0.044
		c0.103,0,0.153,0.085,0.153,0.255l-0.01,0.421L210.445,134.589z"/>
	<path fill="#37515D" d="M221.894,134.589l1.453-1.485c0.173-0.177,0.355-0.307,0.548-0.388c0.423-0.163,0.847-0.244,1.27-0.244
		c0.687,0,1.279,0.161,1.779,0.482c0.501,0.322,0.859,0.739,1.078,1.252c0.218,0.513,0.327,1.317,0.327,2.41l-0.039,3.49
		c0,1.204,0.045,1.899,0.134,2.083c0.121,0.236,0.356,0.354,0.706,0.354h0.688v0.643c-0.684-0.052-1.273-0.078-1.771-0.078
		c-0.485,0-1.006,0.026-1.562,0.078c0.122-1.44,0.183-3.387,0.183-5.839c0-0.99-0.075-1.691-0.227-2.105
		c-0.15-0.414-0.404-0.746-0.76-0.997c-0.356-0.251-0.784-0.376-1.285-0.376c-0.622,0-1.149,0.181-1.583,0.543
		c-0.433,0.362-0.701,0.761-0.804,1.196c-0.064,0.288-0.096,1.042-0.096,2.261c0,1.352,0.009,2.607,0.028,3.767
		c0.007,0.347,0.052,0.565,0.136,0.654c0.161,0.17,0.425,0.255,0.792,0.255h0.686v0.643c-1.084-0.052-1.947-0.078-2.588-0.078
		c-0.681,0-1.454,0.026-2.319,0.078v-0.643h0.691c0.474,0,0.75-0.127,0.831-0.382c0.079-0.254,0.119-1.787,0.119-4.598
		c0-1.261-0.013-2.25-0.038-2.966c-0.013-0.236-0.064-0.398-0.153-0.487c-0.09-0.088-0.343-0.132-0.759-0.132h-0.691v-0.643
		c0.549-0.074,1.04-0.173,1.475-0.299c0.434-0.125,0.922-0.318,1.465-0.576c0.058-0.03,0.111-0.044,0.163-0.044
		c0.102,0,0.153,0.085,0.153,0.255l-0.01,0.421L221.894,134.589z"/>
	<path fill="#37515D" d="M232.257,137.824c0.032,1.455,0.355,2.56,0.969,3.313c0.614,0.753,1.42,1.13,2.417,1.13
		c0.447,0,0.892-0.084,1.333-0.255c0.44-0.169,0.879-0.424,1.313-0.764l0.163,0.166l-0.308,0.931
		c-0.531,0.354-1.079,0.621-1.642,0.798c-0.564,0.177-1.144,0.266-1.739,0.266c-1.3,0-2.348-0.475-3.146-1.424
		c-0.797-0.949-1.195-2.236-1.195-3.862c0-1.241,0.224-2.315,0.672-3.224c0.295-0.598,0.839-1.152,1.633-1.662
		s1.565-0.765,2.315-0.765c1.133,0,2.031,0.384,2.693,1.152c0.663,0.769,0.994,1.843,0.994,3.225l-0.019,0.654
		c-0.422,0.118-0.825,0.196-1.209,0.232c-0.684,0.059-1.634,0.089-2.849,0.089H232.257z M232.276,136.993
		c0.992,0.052,2.088,0.078,3.285,0.078c0.479,0,0.944-0.026,1.393-0.078v-0.621c0-0.65-0.112-1.267-0.336-1.851
		c-0.142-0.362-0.388-0.663-0.74-0.903c-0.352-0.24-0.759-0.36-1.22-0.36c-0.717,0-1.29,0.303-1.719,0.909
		C232.51,134.773,232.289,135.715,232.276,136.993z"/>
</g>
<g>
	<g>
		<path fill="#B0061E" d="M31.271,123.131L29,92.171c-0.499,5.212-1.418,10.074-2.759,14.587c-1.341,4.513-2.865,8-4.57,10.462
			c-1.706,2.462-3.449,4.192-5.231,5.188c-1.782,0.996-3.545,1.495-5.289,1.495c-1.054,0-1.864-0.216-2.429-0.647
			c-0.565-0.431-0.848-0.954-0.848-1.566c0-0.518,0.206-0.967,0.618-1.351c0.412-0.383,0.934-0.575,1.567-0.575
			c0.459,0,1.121,0.101,1.983,0.302c0.786,0.201,1.438,0.302,1.955,0.302c0.9,0,1.84-0.335,2.817-1.005
			c1.475-0.996,2.936-2.781,4.383-5.356c1.447-2.575,2.74-6.164,3.88-10.768c1.14-4.604,1.854-9.098,2.141-13.482
			c-4.35,0-7.885,1.083-10.606,3.248c-2.166,1.725-3.248,3.65-3.248,5.777c0,0.939,0.511,2.069,1.533,3.392
			c0.549,0.709,0.824,1.284,0.824,1.725c0,0.499-0.157,0.91-0.472,1.236c-0.314,0.326-0.69,0.489-1.128,0.489
			c-0.743,0-1.4-0.421-1.972-1.265c-0.781-1.13-1.171-2.472-1.171-4.024c0-2.185,0.733-4.278,2.199-6.281
			c1.466-2.002,3.497-3.525,6.094-4.57c2.596-1.044,5.638-1.576,9.126-1.595c1.878,0,3.382-0.173,4.513-0.518
			c-0.062,1.725-0.088,2.654-0.08,2.788c-0.008,0.173,0.017,0.566,0.076,1.18l1.668,21.89c4.636-8.085,9.165-14.741,13.589-19.964
			c3.14-3.698,5.876-6.199,8.208-7.502c-1.33,3.641-2.756,8.441-4.278,14.4l-3.527,13.797c-0.193,0.767-0.453,1.888-0.78,3.363
			l-0.694,3.076c1.457,0.345,2.79,0.518,3.998,0.518c0.978,0,2.023-0.115,3.135-0.345l-0.374,1.667
			c-0.978,0.173-1.735,0.259-2.272,0.259c-0.786,0-1.917-0.086-3.394-0.259c-1.208-0.153-2.282-0.23-3.221-0.23
			c-0.997,0-2.128,0.191-3.394,0.575c1.056-2.759,2.161-6.467,3.313-11.124l2.219-8.795c0.941-3.794,1.757-6.4,2.449-7.818
			c-1.538,1.746-3.912,4.95-7.122,9.611c-2.576,3.76-5.459,8.518-8.65,14.273L31.271,123.131z"/>
		<path fill="#B0061E" d="M72.861,97.719c1.878,0,3.439,0.747,4.685,2.242s1.869,3.574,1.869,6.237
			c0,4.254-1.495,8.072-4.484,11.454c-2.989,3.382-6.151,5.073-9.485,5.073c-2.051,0-3.704-0.671-4.958-2.012
			c-1.255-1.341-1.882-3.171-1.882-5.49c0-4.024,1.149-7.741,3.449-11.152C64.947,99.836,68.55,97.719,72.861,97.719z
			 M70.418,99.875c-1.629,0-3.205,1.164-4.729,3.492s-2.285,5.543-2.285,9.643c0,2.491,0.469,4.456,1.409,5.893
			c0.689,1.054,1.609,1.581,2.759,1.581c1.609,0,3.075-0.996,4.397-2.989c1.686-2.587,2.529-5.796,2.529-9.629
			c0-2.874-0.388-4.924-1.164-6.151C72.56,100.488,71.587,99.875,70.418,99.875z"/>
		<path fill="#B0061E" d="M101.564,98.466h4.093l-2.702,10.046c-1.591,5.834-2.386,9.154-2.386,9.959
			c0,0.364,0.086,0.642,0.258,0.833c0.173,0.192,0.364,0.288,0.575,0.288c0.326,0,0.708-0.144,1.149-0.431
			c0.632-0.441,1.83-1.552,3.593-3.334l0.948,1.063c-3.852,4.005-6.688,6.007-8.508,6.007c-0.613,0-1.135-0.235-1.566-0.704
			s-0.647-1.135-0.647-1.998c0-0.996,0.208-2.328,0.623-3.995c-1.704,1.954-3.811,3.669-6.318,5.145
			c-1.667,0.977-3.112,1.466-4.337,1.466c-0.67,0-1.197-0.221-1.579-0.662c-0.383-0.441-0.575-1.142-0.575-2.101
			c0-0.748,0.086-1.554,0.259-2.417c0.249-1.209,0.881-3.636,1.897-7.282c1.284-4.624,1.926-7.397,1.926-8.318
			c0-0.538-0.192-0.806-0.575-0.806c-0.345,0-0.815,0.178-1.409,0.532c-0.594,0.355-1.609,1.212-3.046,2.573l-1.265-1.006
			c2.568-2.3,4.527-3.809,5.878-4.527c1.351-0.718,2.438-1.078,3.262-1.078c0.46,0,0.833,0.168,1.121,0.504
			c0.287,0.336,0.431,0.858,0.431,1.568c0,1.324-0.69,4.576-2.07,9.757c-1.227,4.663-1.839,7.32-1.839,7.973
			c0,0.403,0.129,0.748,0.388,1.036c0.258,0.288,0.541,0.432,0.847,0.432c1.072,0,2.594-0.886,4.566-2.659
			c1.972-1.772,3.265-3.789,3.877-6.05L101.564,98.466z"/>
		<path fill="#B0061E" d="M121.179,114.964l0.977,1.035c-1.495,1.687-3.262,3.225-5.303,4.613c-2.041,1.389-3.723,2.084-5.044,2.084
			c-0.594,0-1.083-0.225-1.466-0.675s-0.575-1.068-0.575-1.854c0-1.533,0.593-4.714,1.78-9.542l3.1-12.619
			c1.129-4.56,2.077-7.617,2.842-9.169c1.187-2.348,2.866-4.171,5.038-5.469s4.464-1.947,6.875-1.947
			c0.823,0,1.469,0.198,1.938,0.593s0.703,0.873,0.703,1.433c0,0.618-0.229,1.125-0.688,1.52s-1.126,0.593-2.004,0.593
			c-0.573,0-1.385-0.096-2.435-0.288c-0.917-0.153-1.767-0.23-2.549-0.23s-1.375,0.162-1.776,0.486
			c-0.554,0.458-1.055,1.421-1.503,2.89s-1.179,4.367-2.191,8.696l-2.867,12.043c-1.418,6.036-2.127,9.188-2.127,9.457
			c0,0.614,0.22,0.92,0.661,0.92c0.421,0,1.035-0.249,1.84-0.748C117.995,117.791,119.587,116.517,121.179,114.964z"/>
		<path fill="#B0061E" d="M124.254,104.387l-1.265-0.978c1.914-2.107,3.66-3.607,5.239-4.498s2.923-1.337,4.034-1.337
			c0.613,0,1.082,0.134,1.407,0.403s0.488,0.632,0.488,1.092c0,0.556-0.621,2.913-1.863,7.071
			c-2.025,6.802-3.038,10.903-3.038,12.302c0,0.269,0.067,0.494,0.201,0.675c0.134,0.183,0.278,0.273,0.431,0.273
			c0.613,0,2.185-1.188,4.714-3.564l1.121,1.092c-2.625,2.472-4.542,4.053-5.749,4.743c-1.208,0.69-2.194,1.035-2.961,1.035
			c-0.671,0-1.203-0.211-1.595-0.632s-0.589-1.006-0.589-1.753c0-2.395,1.437-8.249,4.312-17.562
			c0.134-0.44,0.201-0.833,0.201-1.178c0-0.383-0.173-0.575-0.518-0.575c-0.383,0-0.819,0.153-1.308,0.459
			C127.028,101.762,125.94,102.739,124.254,104.387z M135.55,85.359c0.594,0,1.082,0.197,1.466,0.589
			c0.383,0.393,0.575,0.896,0.575,1.509c0,0.843-0.292,1.585-0.876,2.228c-0.585,0.642-1.241,0.963-1.969,0.963
			c-0.575,0-1.054-0.201-1.437-0.604s-0.575-0.929-0.575-1.581c0-0.862,0.277-1.595,0.833-2.199
			C134.123,85.661,134.784,85.359,135.55,85.359z"/>
		<path fill="#B0061E" d="M138.31,104.473l-0.978-1.006c2.455-2.349,4.411-3.909,5.869-4.679c1.458-0.771,2.704-1.156,3.74-1.156
			c0.402,0,0.719,0.086,0.949,0.259c0.23,0.172,0.346,0.374,0.346,0.604c0,0.172-0.048,0.479-0.144,0.92l-1.295,5.785
			c1.951-2.167,4.399-4.191,7.346-6.071c1.569-0.978,2.86-1.467,3.874-1.467c0.746,0,1.329,0.24,1.75,0.719s0.631,1.169,0.631,2.069
			c0,0.594-0.086,1.265-0.258,2.012c-0.305,1.246-1.107,3.957-2.406,8.134c-1.222,3.909-1.833,6.506-1.833,7.789
			c0,0.393,0.057,0.688,0.172,0.884c0.115,0.197,0.277,0.295,0.488,0.295c0.556,0,1.428-0.536,2.616-1.61
			c0.843-0.766,1.686-1.475,2.529-2.127l0.719,1.035c-1.763,1.945-3.593,3.509-5.49,4.691c-1.208,0.762-2.204,1.144-2.989,1.144
			c-0.729,0-1.293-0.264-1.696-0.791c-0.403-0.526-0.604-1.384-0.604-2.572c0-1.705,1.063-5.95,3.191-12.733
			c0.651-2.414,0.977-3.823,0.977-4.225c0-0.594-0.355-0.891-1.063-0.891c-0.767,0-1.753,0.403-2.96,1.209
			c-1.802,1.19-3.306,2.591-4.513,4.203c-0.767,1.037-1.409,2.687-1.926,4.95l-2.328,10.046h-4.283
			c0.805-2.878,1.504-5.632,2.098-8.261l2.558-10.938c0.096-0.441,0.144-0.757,0.144-0.949c0-0.518-0.192-0.777-0.575-0.777
			c-0.307,0-0.748,0.203-1.322,0.608C140.455,102.367,139.344,103.333,138.31,104.473z"/>
		<path fill="#B0061E" d="M198.757,87.285l0.805,3.363c0.747,3.066,1.484,5.749,2.213,8.048c0.729,2.3,2.597,7.617,5.605,15.953
			c0.287-1.054,0.862-3.392,1.725-7.013c1.111-4.714,1.849-7.675,2.213-8.882c1.073-3.545,2.107-6.151,3.104-7.818
			c0.996-1.667,2.107-2.864,3.334-3.593c1.227-0.728,2.615-1.092,4.168-1.092c1.245,0,2.198,0.24,2.859,0.719
			s0.992,1.054,0.992,1.725c0,0.479-0.178,0.901-0.532,1.265c-0.354,0.364-0.771,0.546-1.25,0.546c-0.346,0-0.748-0.095-1.208-0.287
			c-0.958-0.383-1.533-0.604-1.725-0.661c-0.345-0.076-0.719-0.115-1.121-0.115c-0.939,0-1.744,0.316-2.415,0.949
			c-1.188,1.111-2.496,3.899-3.924,8.364c-1.429,4.465-3.244,11.603-5.448,21.414l-0.978,4.283
			c-2.184-4.81-3.659-8.221-4.425-10.232c-1.035-2.702-2.213-6.112-3.534-10.232l-3.161-9.945
			c-0.384,2.299-1.279,6.175-2.688,11.626c-1.408,5.452-2.247,8.59-2.515,9.414c-0.882,2.587-1.825,4.57-2.831,5.95
			s-2.109,2.386-3.306,3.018c-1.198,0.632-2.515,0.949-3.952,0.949c-1.801,0-3.276-0.403-4.426-1.208
			c-0.882-0.594-1.322-1.351-1.322-2.271c0-0.402,0.163-0.762,0.489-1.078c0.326-0.316,0.718-0.474,1.178-0.474
			c0.594,0,1.236,0.316,1.926,0.949c1.226,1.13,2.347,1.696,3.363,1.696c1.092,0,2.165-0.489,3.219-1.466
			c1.571-1.495,3.085-4.627,4.542-9.399c1.763-5.767,3.459-13.087,5.088-21.959c-0.672,0-1.955,0.192-3.852,0.575
			c-1.897,0.384-3.483,0.925-4.758,1.624c-1.274,0.7-2.251,1.61-2.932,2.73c-0.68,1.121-1.021,2.295-1.021,3.521
			c0,0.614,0.086,1.236,0.259,1.869c0.115,0.421,0.364,0.939,0.748,1.552c0.44,0.709,0.661,1.246,0.661,1.61
			c0,0.46-0.168,0.853-0.503,1.178c-0.335,0.326-0.752,0.489-1.25,0.489c-0.729,0-1.351-0.378-1.869-1.135
			c-0.517-0.757-0.776-1.912-0.776-3.463c0-2.568,0.646-4.752,1.94-6.554c1.293-1.801,3.023-3.162,5.189-4.082
			c1.379-0.575,4.043-1.13,7.99-1.667C196.103,87.841,197.473,87.592,198.757,87.285z"/>
		<path fill="#B0061E" d="M233.736,114.677l0.949,1.265c-4.695,4.465-8.72,6.697-12.072,6.697c-1.361,0-2.4-0.46-3.119-1.38
			c-0.718-0.92-1.077-2.395-1.077-4.426c0-4.101,1.245-8.182,3.736-12.245c2.798-4.618,6.141-6.927,10.031-6.927
			c1.36,0,2.4,0.34,3.119,1.021c0.718,0.68,1.077,1.614,1.077,2.802c0,1.246-0.431,2.472-1.293,3.679s-2.405,2.462-4.628,3.765
			c-1.111,0.633-3.487,1.773-7.128,3.421c-0.173,1.035-0.259,2.021-0.259,2.96c0,1.361,0.216,2.309,0.646,2.845
			c0.432,0.537,1.059,0.805,1.883,0.805c0.785,0,1.647-0.22,2.587-0.661C229.454,117.705,231.303,116.498,233.736,114.677z
			 M223.677,110.509c3.085-1.379,5.403-2.864,6.956-4.455c1.054-1.111,1.58-2.213,1.58-3.306c0-0.824-0.215-1.48-0.646-1.969
			c-0.431-0.489-0.991-0.733-1.682-0.733c-0.709,0-1.398,0.269-2.069,0.805c-0.9,0.709-1.657,1.782-2.271,3.219
			C224.663,106.179,224.04,108.325,223.677,110.509z"/>
		<path fill="#B0061E" d="M258.1,98.466h4.093l-2.701,10.046c-1.591,5.834-2.386,9.154-2.386,9.959c0,0.364,0.086,0.642,0.258,0.833
			c0.173,0.192,0.364,0.288,0.575,0.288c0.326,0,0.709-0.144,1.149-0.431c0.633-0.441,1.83-1.552,3.594-3.334l0.948,1.063
			c-3.852,4.005-6.688,6.007-8.508,6.007c-0.613,0-1.136-0.235-1.566-0.704c-0.432-0.469-0.647-1.135-0.647-1.998
			c0-0.996,0.208-2.328,0.623-3.995c-1.704,1.954-3.811,3.669-6.318,5.145c-1.667,0.977-3.112,1.466-4.338,1.466
			c-0.67,0-1.196-0.221-1.579-0.662s-0.574-1.142-0.574-2.101c0-0.748,0.086-1.554,0.259-2.417c0.248-1.209,0.881-3.636,1.896-7.282
			c1.284-4.624,1.926-7.397,1.926-8.318c0-0.538-0.191-0.806-0.574-0.806c-0.346,0-0.815,0.178-1.409,0.532
			c-0.594,0.355-1.609,1.212-3.046,2.573l-1.266-1.006c2.568-2.3,4.527-3.809,5.879-4.527c1.351-0.718,2.438-1.078,3.262-1.078
			c0.46,0,0.834,0.168,1.121,0.504s0.432,0.858,0.432,1.568c0,1.324-0.69,4.576-2.07,9.757c-1.227,4.663-1.839,7.32-1.839,7.973
			c0,0.403,0.129,0.748,0.388,1.036c0.258,0.288,0.54,0.432,0.847,0.432c1.072,0,2.594-0.886,4.566-2.659
			c1.972-1.772,3.265-3.789,3.877-6.05L258.1,98.466z"/>
		<path fill="#B0061E" d="M266.733,99.587h6.87c1.13-4.79,2.424-8.354,3.88-10.692c1.456-2.337,3.354-4.182,5.691-5.533
			c2.337-1.351,4.541-2.026,6.61-2.026c1.169,0,2.051,0.23,2.645,0.69s0.892,1.006,0.892,1.638c0,0.575-0.202,1.054-0.605,1.438
			c-0.402,0.383-0.931,0.575-1.583,0.575c-0.672,0-1.938-0.201-3.8-0.604c-0.921-0.191-1.641-0.288-2.158-0.288
			c-1.268,0-2.409,0.781-3.426,2.343c-1.018,1.562-1.833,3.674-2.447,6.338l-1.443,6.122h7.615l-0.46,2.041h-7.715l-4.5,18.338
			c-1.399,5.576-3.637,9.801-6.712,12.676c-3.075,2.874-6.414,4.312-10.017,4.312c-1.208,0-2.122-0.235-2.745-0.705
			s-0.935-1.049-0.935-1.739c0-0.594,0.216-1.068,0.647-1.423c0.431-0.354,1.049-0.532,1.854-0.532c0.402,0,0.996,0.048,1.782,0.144
			c1.341,0.172,2.625,0.258,3.852,0.258c1.896,0,3.276-0.445,4.139-1.336s1.725-3.071,2.587-6.539l5.835-23.454h-6.869
			L266.733,99.587z"/>
	</g>
</g>
<g>
	<g>
		<g>
			<path fill="#C7C7C7" d="M18.792,85.317c0,0,0.069-0.236,0.203-0.694c0.132-0.458,0.331-1.137,0.616-2.02
				c0.575-1.759,1.427-4.346,2.893-7.489c1.473-3.122,3.53-6.878,6.865-10.443c1.659-1.779,3.654-3.475,5.98-4.928
				c2.328-1.447,4.984-2.641,7.874-3.471c5.789-1.685,12.389-1.957,19.183-1.304c6.81,0.656,13.872,2.166,21.01,4.203
				c14.289,4.082,28.977,10.022,43.388,16.459c3.532,1.616,7.23,3.176,10.801,4.458c3.648,1.252,7.339,2.373,11.063,3.172
				c3.71,0.871,7.453,1.417,11.155,1.807c1.856,0.163,3.699,0.324,5.536,0.362c1.833,0.111,3.658,0.06,5.464,0.073
				c7.221-0.222,14.19-1.063,20.649-2.615c3.238-0.734,6.349-1.623,9.336-2.567c1.478-0.519,2.952-0.97,4.359-1.529
				c0.71-0.263,1.413-0.524,2.109-0.783c0.689-0.278,1.371-0.554,2.046-0.826c5.387-2.221,10.209-4.582,14.379-6.881
				c4.174-2.294,7.685-4.533,10.574-6.387c2.885-1.862,5.082-3.437,6.592-4.497c1.501-1.074,2.302-1.647,2.302-1.647l0.243,0.296
				c0,0-0.733,0.662-2.107,1.904c-1.389,1.226-3.462,2.983-6.186,5.125c-2.707,2.167-6.138,4.617-10.216,7.228
				c-4.073,2.618-8.834,5.349-14.282,7.84c-5.431,2.52-11.553,4.805-18.249,6.472c-6.686,1.68-13.959,2.699-21.502,2.735
				c-7.539,0.01-15.33-0.913-22.972-2.869c-3.837-0.926-7.603-2.187-11.343-3.564c-3.786-1.447-7.31-3.043-10.917-4.753
				c-14.235-6.638-28.737-12.774-42.798-17.037c-7.028-2.113-13.949-3.753-20.605-4.542c-6.642-0.784-13.061-0.65-18.679,0.855
				c-5.632,1.462-10.269,4.42-13.546,7.824c-3.317,3.393-5.427,7.042-6.947,10.097c-1.515,3.074-2.419,5.628-3.027,7.361
				c-0.301,0.867-0.515,1.542-0.657,1.998c-0.144,0.455-0.218,0.689-0.218,0.689L18.792,85.317z"/>
		</g>
	</g>
</g>
</svg>
